{"title":"The Gadget Show S16E10 - Surprise Special ( missing episode)","uid":6840023,"size":419560552,"categoryP":"video","categoryS":"tv_shows","magnet":"?xt=urn:btih:50ed05cff49f2530911d48e18f9c2875a02c5b89&amp;dn=The+Gadget+Show+S16E10+-+Surprise+Special+%28+missing+episode%29&amp;tr=udp%3A%2F%2Ftracker.openbittorrent.com%3A80&amp;tr=udp%3A%2F%2Fopen.demonii.com%3A1337&amp;tr=udp%3A%2F%2Ftracker.coppersurfer.tk%3A6969&amp;tr=udp%3A%2F%2Fexodus.desync.com%3A6969","seeders":0,"leechers":0,"uploader":"Tbilisi","files":-1,"time":1322094071,"description":"General\nComplete name                            : D:\\\\TV Shows\\\\The Gadget Show S16E10 (webrip)-tbilisi-.avi\nFormat                                   : AVI\nFormat/Info                              : Audio Video Interleave\nFile size                                : 400 MiB\nDuration                                 : 39mn 42s\nOverall bit rate                         : 1 409 Kbps\n\nVideo\nID                                       : 0\nFormat                                   : MPEG-4 Visual\nFormat profile                           : Advanced Simple@L5\nFormat settings, BVOP                    : 2\nFormat settings, QPel                    : No\nFormat settings, GMC                     : No warppoints\nFormat settings, Matrix                  : Default (H.263)\nCodec ID                                 : XVID\nCodec ID/Hint                            : XviD\nDuration                                 : 39mn 42s\nBit rate                                 : 1 267 Kbps\nWidth                                    : 640 pixels\nHeight                                   : 360 pixels\nDisplay aspect ratio                     : 16:9\nFrame rate                               : 30.000 fps\nColor space                              : YUV\nChroma subsampling                       : 4:2:0\nBit depth                                : 8 bits\nScan type                                : Progressive\nCompression mode                         : Lossy\nBits/(Pixel*Frame)                       : 0.183\nStream size                              : 360 MiB (90%)\nWriting library                          : XviD 63\n\nAudio\nID                                       : 1\nFormat                                   : MPEG Audio\nFormat version                           : Version 1\nFormat profile                           : Layer 3\nCodec ID                                 : 55\nCodec ID/Hint                            : MP3\nDuration                                 : 39mn 42s\nBit rate mode                            : Constant\nBit rate                                 : 128 Kbps\nChannel(s)                               : 2 channels\nSampling rate                            : 44.1 KHz\nCompression mode                         : Lossy\nStream size                              : 36.4 MiB (9%)\nAlignment                                : Split accross interleaves\nInterleave, duration                     : 26 ms (0.78 video frame)\nWriting library                          : LAME\n\n","torrent":{"xt":"urn:btih:50ed05cff49f2530911d48e18f9c2875a02c5b89","amp;dn":"The+Gadget+Show+S16E10+-+Surprise+Special+%28+missing+episode%29","amp;tr":["udp%3A%2F%2Ftracker.openbittorrent.com%3A80","udp%3A%2F%2Fopen.demonii.com%3A1337","udp%3A%2F%2Ftracker.coppersurfer.tk%3A6969","udp%3A%2F%2Fexodus.desync.com%3A6969"],"infoHash":"50ed05cff49f2530911d48e18f9c2875a02c5b89","infoHashBuffer":{"type":"Buffer","data":[80,237,5,207,244,159,37,48,145,29,72,225,143,156,40,117,160,44,91,137]},"announce":[],"urlList":[]}}